# xmcd
#
# Track frame offsets:
#	150
#	16804
#	33929
#	47808
#	59519
#	75118
#	92254
#	107788
#	122239
#	139765
#	156690
#	175727
#	200846
#	214516
#	235447
#	245519
#	256325
#	270344
#	285104
#
# Disc length: 3979 seconds
#
# Revision: 0
# Processed by: cddbd v1.5.2PL0 Copyright (c) Steve Scherf et al.
# Submitted via: EasyCDDAExtractor 16.0.8.1
#
DISCID=000f8913
DTITLE=NTALARAS GIORGOS - KRATISA TI ZOI MOU
DYEAR=2015
DGENRE=Greek
TTITLE0=NTALARAS GIORGOS - ANIGO TO STOMA MOU
TTITLE1=NTALARAS GIORGOS - TIS AGAPIS AIMATA
TTITLE2=NTALARAS GIORGOS - ME TO LICHNO TOU ASTROU
TTITLE3=PASCHALIDIS MILTOS - AFTOUS POU VLEPEIS
TTITLE4=PASCHALIDIS MILTOS - ODI TETARTI IS SAMON
TTITLE5=NTALARAS GIORGOS - TA PARATHIRIA ORTHANICHTA
TTITLE6=NTALARAS GIORGOS - VRADIAZI
TTITLE7=NTALARAS GIORGOS - GONIA GONIA
TTITLE8=ZOUGANELI ELEONORA - NICHTA MAGIKIA
TTITLE9=ZOUGANELI ELEONORA - MARINA
TTITLE10=NTALARAS GIORGOS - DROMI PALIOI
TTITLE11=NTALARAS GIORGOS - TO NAVAGIO
TTITLE12=NTALARAS GIORGOS - ISKIOI VOUVI
TTITLE13=NTALARAS GIORGOS - STA PERVOLIA
TTITLE14=NTALARAS GIORGOS - AFTA TA DENTRA
TTITLE15=NTALARAS GIORGOS - OTAN SFIGOUN TO HERI
TTITLE16=NTALARAS GIORGOS - MPIKAN STA SIDERA
TTITLE17=NTALARAS GIORGOS - OI MOIRAIOI
TTITLE18=NTALARAS GIORGOS - LIGO AKOMA
EXTD=
EXTT0=
EXTT1=
EXTT2=
EXTT3=
EXTT4=
EXTT5=
EXTT6=
EXTT7=
EXTT8=
EXTT9=
EXTT10=
EXTT11=
EXTT12=
EXTT13=
EXTT14=
EXTT15=
EXTT16=
EXTT17=
EXTT18=
PLAYORDER=
